<?xml version="1.0" standalone="no"?>
<!DOCTYPE svg PUBLIC "-//W3C//DTD SVG 20010904//EN"
 "http://www.w3.org/TR/2001/REC-SVG-20010904/DTD/svg10.dtd">
<svg version="1.0" xmlns="http://www.w3.org/2000/svg"
 width="500.000000pt" height="500.000000pt" viewBox="0 0 500.000000 500.000000"
 preserveAspectRatio="xMidYMid meet">

<g transform="translate(0.000000,500.000000) scale(0.100000,-0.100000)"
fill="#000000" stroke="none">
<path d="M2143 3202 l-143 -87 3 -209 2 -210 -145 -83 c-91 -52 -146 -89 -148
-100 -1 -10 -8 -77 -15 -149 l-13 -132 97 -61 96 -61 44 25 c24 13 48 25 52
25 5 0 5 -73 2 -162 l-6 -163 120 -83 120 -83 140 71 c77 38 146 70 151 70 6
0 68 -38 136 -85 69 -47 130 -85 136 -85 5 0 72 33 149 73 l139 72 -5 50 c-3
28 -8 67 -10 87 -5 36 -3 38 46 65 l51 28 -6 105 -7 105 121 60 120 59 0 147
0 147 -77 64 c-103 85 -98 83 -133 58 -17 -12 -37 -20 -44 -17 -16 6 -26 52
-26 117 0 26 -3 75 -6 108 l-7 61 -100 83 c-55 46 -107 87 -114 91 -9 6 -60
-17 -149 -67 l-135 -76 -137 106 c-75 59 -142 111 -147 115 -6 4 -73 -31 -152
-79z m137 16 l0 -43 -85 -49 c-47 -27 -88 -53 -92 -59 -4 -6 -6 -149 -4 -317
l2 -305 -90 -48 -91 -48 0 43 c0 42 2 44 55 73 l55 29 -7 306 -6 306 124 76
c68 42 127 77 132 77 4 1 7 -18 7 -41z m170 -79 c72 -55 130 -105 130 -110 0
-4 -13 -15 -28 -23 -27 -14 -30 -13 -145 77 -113 89 -117 93 -117 131 0 30 3
37 15 32 9 -3 74 -51 145 -107z m394 19 c8 -31 8 -178 0 -178 -4 0 -36 26 -72
57 l-65 57 -50 -27 c-50 -28 -79 -31 -35 -4 43 27 203 116 209 117 4 0 9 -10
13 -22z m128 -65 c49 -41 90 -84 92 -96 3 -12 7 -66 10 -120 6 -114 18 -114
-116 1 l-85 73 -7 67 c-10 110 -8 164 7 156 6 -4 51 -41 99 -81z m-692 17 c0
-38 -3 -43 -46 -68 l-45 -27 3 -312 3 -312 -132 -71 c-73 -38 -137 -70 -143
-70 -11 0 -12 36 -1 63 4 11 49 42 101 71 l95 52 -4 310 -4 310 79 46 c44 26
82 47 87 47 4 1 7 -17 7 -39z m130 -50 c49 -40 90 -75 90 -80 0 -4 -14 -13
-30 -20 -28 -12 -34 -10 -68 17 -20 16 -54 42 -74 59 -32 24 -38 35 -38 68 0
48 4 47 120 -44z m281 -135 c-1 -71 -4 -132 -7 -136 -3 -6 -347 -196 -376
-207 -4 -2 -8 56 -8 130 l0 133 188 107 c103 59 191 106 196 105 4 -2 8 -61 7
-132z m242 -47 c117 -101 227 -196 245 -212 l34 -30 -4 52 c-5 60 5 66 46 23
25 -26 27 -33 24 -104 l-3 -76 -245 204 -245 204 -3 -105 -3 -104 -34 26 -35
26 0 139 c0 77 2 139 5 139 3 0 101 -82 218 -182z m-522 66 c8 -10 3 -17 -24
-30 l-35 -17 -66 54 c-36 29 -66 54 -66 56 0 2 14 12 32 23 l31 19 59 -46 c32
-25 63 -52 69 -59z m-129 -11 l60 -47 -31 -15 -31 -15 0 -150 0 -151 48 -32
c26 -17 70 -48 99 -68 50 -36 52 -36 82 -21 16 9 32 16 36 16 3 0 5 -65 5
-145 0 -80 -3 -145 -6 -145 -3 0 -80 52 -170 116 l-164 115 0 295 c0 162 3
294 6 294 3 0 33 -21 66 -47z m763 -232 c116 -96 221 -184 234 -195 l24 -21
-7 93 c-4 50 -4 92 1 92 4 0 18 -8 29 -18 19 -15 22 -31 28 -144 3 -71 3 -128
-2 -128 -4 0 -114 88 -244 195 -130 107 -238 195 -240 195 -2 0 -1 -26 1 -57
l3 -57 -33 26 -34 25 -3 98 c-3 93 -2 97 15 84 10 -7 113 -92 228 -188z m-306
39 c19 -16 33 -31 30 -33 -2 -2 -49 -28 -104 -57 -55 -29 -139 -73 -186 -99
-78 -41 -89 -44 -110 -33 -39 22 -65 44 -54 48 6 2 91 49 190 103 99 55 185
100 190 100 6 0 25 -13 44 -29z m451 -20 c0 -35 -10 -38 -34 -11 -17 18 -17
20 1 30 28 16 33 13 33 -19z m-85 -165 c114 -93 216 -177 227 -186 19 -15 16
-18 -86 -69 -59 -29 -109 -50 -113 -47 -3 3 -8 46 -11 95 l-5 90 -113 93
c-108 88 -114 94 -114 130 0 21 -3 45 -7 55 -4 10 -2 15 5 13 6 -2 104 -80
217 -174z m-271 109 c15 -14 27 -26 25 -28 -2 -2 -89 -47 -192 -101 l-188 -97
-34 23 c-19 13 -35 26 -35 29 0 9 364 200 380 199 8 0 28 -11 44 -25z m-824
-77 l0 -83 -52 -30 c-49 -28 -53 -33 -58 -74 -5 -43 -5 -44 -94 -92 -50 -27
-92 -47 -96 -46 -9 5 15 247 26 257 14 13 257 151 266 151 4 0 8 -37 8 -83z
m853 -9 c2 -18 5 -87 6 -153 1 -66 4 -141 7 -166 l6 -46 -178 -93 c-99 -51
-239 -124 -311 -162 l-133 -70 0 49 0 49 153 75 152 74 1 45 c1 25 2 99 3 165
l1 120 138 72 c75 40 140 73 143 73 4 0 9 -15 12 -32z m199 -120 l38 -33 10
-140 c5 -77 10 -164 10 -193 l0 -52 -115 86 -115 86 0 87 c0 47 -3 138 -7 201
l-6 114 74 -61 c41 -34 91 -77 111 -95z m-709 -188 c179 -127 182 -129 176
-135 -3 -2 -66 -33 -141 -69 l-136 -64 -157 106 c-86 59 -157 112 -158 117 -1
10 238 142 261 144 8 0 78 -44 155 -99z m-456 -14 c-3 -7 -30 -25 -59 -41
l-55 -29 -32 23 c-39 28 -37 30 66 86 l78 41 3 -34 c2 -19 1 -40 -1 -46z m38
-60 l29 -23 -42 -22 -43 -22 -35 22 c-38 23 -38 23 3 50 38 24 53 23 88 -5z
m1066 -87 c60 -44 109 -84 109 -88 0 -14 -78 -44 -92 -35 -7 4 -45 32 -85 61
l-71 54 -314 -157 -314 -157 -72 49 c-39 27 -71 52 -72 56 0 4 14 15 30 23 29
15 32 15 74 -15 25 -16 51 -30 58 -30 7 1 148 72 313 159 165 87 306 159 313
160 7 1 62 -35 123 -80z m-941 -101 l0 -107 -30 -16 c-16 -8 -33 -15 -37 -15
-9 0 -7 106 3 218 l6 62 29 -17 29 -17 0 -108z m63 59 c25 -20 27 -26 21 -72
-5 -42 -11 -54 -35 -67 -31 -18 -40 -13 -34 18 2 10 4 47 4 82 1 34 4 62 9 62
4 0 19 -10 35 -23z m813 -42 c40 -30 74 -57 74 -60 0 -3 -14 -14 -32 -24 l-31
-20 -58 40 -58 39 -311 -155 -310 -155 -105 72 c-58 40 -105 76 -105 81 0 4
15 15 34 24 l34 16 82 -58 83 -58 311 156 c171 86 312 156 314 156 2 1 37 -24
78 -54z m-723 -17 c23 -17 27 -26 27 -69 l0 -49 -40 26 c-38 25 -40 30 -40 76
0 53 -1 52 53 16z m676 -67 l58 -40 29 20 c16 10 34 19 40 19 10 0 28 -119 19
-128 -6 -6 -223 153 -218 161 7 11 10 10 72 -32z m-11 -43 c48 -34 102 -73
121 -86 l34 -25 -124 -63 c-68 -35 -129 -63 -136 -63 -11 -1 -256 160 -251
164 5 4 263 135 266 135 2 0 43 -28 90 -62z"/>
</g>
</svg>
